<svg width="32" height="32" viewBox="0 0 32 32" fill="none" xmlns="http://www.w3.org/2000/svg">
<path d="M16 13.4286C16.5086 13.4286 17.0057 13.5794 17.4286 13.8619C17.8515 14.1445 18.1811 14.5461 18.3757 15.016C18.5703 15.4858 18.6212 16.0029 18.522 16.5017C18.4228 17.0005 18.1779 17.4587 17.8183 17.8183C17.4587 18.1779 17.0005 18.4228 16.5017 18.522C16.0029 18.6212 15.4858 18.5703 15.016 18.3757C14.5461 18.1811 14.1445 17.8515 13.8619 17.4286C13.5794 17.0057 13.4286 16.5086 13.4286 16C13.4293 15.3182 13.7005 14.6646 14.1826 14.1826C14.6646 13.7005 15.3182 13.4293 16 13.4286ZM16 12.1429C15.2371 12.1429 14.4914 12.3691 13.8571 12.7929C13.2228 13.2167 12.7284 13.8191 12.4365 14.5239C12.1445 15.2287 12.0681 16.0043 12.217 16.7525C12.3658 17.5007 12.7332 18.188 13.2726 18.7274C13.812 19.2668 14.4993 19.6342 15.2475 19.783C15.9957 19.9319 16.7713 19.8555 17.4761 19.5635C18.1809 19.2716 18.7833 18.7772 19.2071 18.1429C19.6309 17.5086 19.8571 16.7629 19.8571 16C19.8571 14.977 19.4508 13.9959 18.7274 13.2726C18.0041 12.5492 17.023 12.1429 16 12.1429Z" fill="#606060"/>
<path d="M9.18206 10.0909L10.0912 9.18173L12.345 11.4355L11.4358 12.3446L9.18206 10.0909Z" fill="#606060"/>
<path d="M7 15.3571H10.2143V16.6429H7V15.3571Z" fill="#606060"/>
<path d="M9.18206 21.9096L11.4358 19.6558L12.345 20.5649L10.0912 22.8187L9.18206 21.9096Z" fill="#606060"/>
<path d="M15.3571 21.7857H16.6429V25H15.3571V21.7857Z" fill="#606060"/>
<path d="M19.6559 20.5645L20.5651 19.6553L22.8188 21.9091L21.9097 22.8182L19.6559 20.5645Z" fill="#606060"/>
<path d="M21.7857 15.3571H25V16.6429H21.7857V15.3571Z" fill="#606060"/>
<path d="M19.6559 11.435L21.9097 9.18128L22.8188 10.0904L20.5651 12.3442L19.6559 11.435Z" fill="#606060"/>
<path d="M15.3571 7H16.6429V10.2143H15.3571V7Z" fill="#606060"/>
</svg>
